ffmpeg version 8.1-essentials_build-www.gyan.dev Copyright (c) 2000-2026 the FFmpeg developers
  built with gcc 15.2.0 (Rev11, Built by MSYS2 project)
  configuration: --enable-gpl --enable-version3 --enable-static --disable-w32threads --disable-autodetect --enable-cairo --enable-fontconfig --enable-iconv --enable-gnutls --enable-libxml2 --enable-gmp --enable-bzlib --enable-lzma --enable-zlib --enable-libsrt --enable-libssh --enable-libzmq --enable-avisynth --enable-sdl2 --enable-libwebp --enable-libx264 --enable-libx265 --enable-libxvid --enable-libaom --enable-libopenjpeg --enable-libvpx --enable-mediafoundation --enable-libass --enable-libfreetype --enable-libfribidi --enable-libharfbuzz --enable-libvidstab --enable-libvmaf --enable-libzimg --enable-amf --enable-cuda-llvm --enable-cuvid --enable-dxva2 --enable-d3d11va --enable-d3d12va --enable-ffnvcodec --enable-libvpl --enable-nvdec --enable-nvenc --enable-vaapi --enable-openal --enable-libgme --enable-libopenmpt --enable-libopencore-amrwb --enable-libmp3lame --enable-libtheora --enable-libvo-amrwbenc --enable-libgsm --enable-libopencore-amrnb --enable-libopus --enable-libspeex --enable-libvorbis --enable-librubberband
  libavutil      60. 26.100 / 60. 26.100
  libavcodec     62. 28.100 / 62. 28.100
  libavformat    62. 12.100 / 62. 12.100
  libavdevice    62.  3.100 / 62.  3.100
  libavfilter    11. 14.100 / 11. 14.100
  libswscale      9.  5.100 /  9.  5.100
  libswresample   6.  3.100 /  6.  3.100
Input #0, mov,mp4,m4a,3gp,3g2,mj2, from 'F:\Antigravity Projeler\2d roguelite\RIMA\STAGING\twitter_research\2055027312404418876\twitter\NemraV1\2055027312404418876_1.mp4':
  Metadata:
    major_brand     : isom
    minor_version   : 1
    compatible_brands: isomiso4
    creation_time   : 2026-05-14T20:47:52.000000Z
  Duration: 00:00:51.35, start: 0.000000, bitrate: 3716 kb/s
  Stream #0:0[0x1](und): Video: h264 (High) (avc1 / 0x31637661), yuv420p(progressive), 2560x1440, 3577 kb/s, SAR 1:1 DAR 16:9, 59.94 fps, 59.94 tbr, 6000k tbn (default)
    Metadata:
      handler_name    : Twitter-vork muxer
  Stream #0:1[0x2](und): Audio: aac (LC) (mp4a / 0x6134706D), 48000 Hz, stereo, fltp, 128 kb/s (default)
    Metadata:
      handler_name    : Twitter-vork muxer
Stream mapping:
  Stream #0:0 -> #0:0 (h264 (native) -> png (native))
Press [q] to stop, [?] for help
Output #0, image2, to 'STAGING\twitter_research\2055027312404418876\frames\frame_%03d.png':
  Metadata:
    major_brand     : isom
    minor_version   : 1
    compatible_brands: isomiso4
    encoder         : Lavf62.12.100
  Stream #0:0(und): Video: png, rgb24(pc, gbr/unknown/unknown, progressive), 2560x1440 [SAR 1:1 DAR 16:9], q=2-31, 200 kb/s, 0.20 fps, 0.20 tbn (default)
    Metadata:
      encoder         : Lavc62.28.100 png
      handler_name    : Twitter-vork muxer
frame=    0 fps=0.0 q=0.0 size=       0KiB time=N/A bitrate=N/A speed=N/A elapsed=0:00:00.50    
frame=    2 fps=1.9 q=-0.0 size=N/A time=00:00:10.00 bitrate=N/A speed=9.71x elapsed=0:00:01.02    
frame=    5 fps=3.3 q=-0.0 size=N/A time=00:00:25.00 bitrate=N/A speed=16.3x elapsed=0:00:01.53    
frame=    8 fps=3.9 q=-0.0 size=N/A time=00:00:45.00 bitrate=N/A speed=21.9x elapsed=0:00:02.05    
[out#0/image2 @ 000001cdc8014d80] video:28965KiB audio:0KiB subtitle:0KiB other streams:0KiB global headers:0KiB muxing overhead: unknown
frame=   10 fps=4.7 q=-0.0 Lsize=N/A time=00:00:50.00 bitrate=N/A speed=23.6x elapsed=0:00:02.12    
